<svg xmlns="http://www.w3.org/2000/svg" viewBox="0 0 184.06 75.08"><defs><style>.cls-1{fill:#1e1e1e;}</style></defs><title>Asset 5</title><g id="Layer_2" data-name="Layer 2"><g id="Moth"><path id="moth_svg" class="cls-1" d="M183.21,29.61C142.12,7.11,103.82,20.44,99.65,22a1.5,1.5,0,0,1-.84.08c-1.07-.17-3.51-.75-2.49-2.26a2,2,0,0,0,.2-2.34,1.6,1.6,0,0,1,0-1.72c2.18-3.46,9.72-12.62,15-13.77,6-1.3,6.89.39,4.41,2.41-.3.24.21.68.52.46,2.27-1.6,5.56-4.67-2.23-4.86-8.64-.2-16.6,11.06-19.22,15.17a1.64,1.64,0,0,1-2.2.53l0,0a1.62,1.62,0,0,0-1.57,0l0,0a1.64,1.64,0,0,1-2.2-.53C86.38,11.06,78.42-.2,69.78,0,62,.19,65.29,3.26,67.55,4.86c.31.22.82-.22.52-.46C65.59,2.38,66.5.69,72.48,2c5.32,1.15,12.86,10.31,15,13.77a1.6,1.6,0,0,1,0,1.72,2,2,0,0,0,.2,2.34c1,1.51-1.42,2.09-2.49,2.26a1.5,1.5,0,0,1-.84-.08C80.25,20.44,41.94,7.11.86,29.61A1.62,1.62,0,0,0,0,31.09C.1,33.79,1.55,41,14.32,41.22a1.68,1.68,0,0,1,1.17.51c2.18,2.33,11.82,11.94,20,9,4.37-1.56,6.95-2.46,8.45-3a1.63,1.63,0,0,1,2.16,1.51c.06,2.73-.23,7.17-2.61,8.31-3.5,1.66,4,19.5,14,17.33s9.19-4.4,15.63-3c5.58,1.19,12.42-7.57,14.41-13.4A1.63,1.63,0,0,1,90,57.65a5.85,5.85,0,0,0,1.63.83,1.26,1.26,0,0,0,.72,0A5.72,5.72,0,0,0,94,57.65a1.64,1.64,0,0,1,2.48.83c2,5.83,8.82,14.59,14.41,13.4,6.43-1.38,5.62.85,15.62,3s17.5-15.67,14-17.33c-2.38-1.14-2.67-5.58-2.61-8.31a1.63,1.63,0,0,1,2.16-1.51c1.5.52,4.08,1.42,8.45,3,8.22,2.94,17.86-6.67,20.05-9a1.64,1.64,0,0,1,1.16-.51C182.51,41,184,33.79,184.06,31.09A1.63,1.63,0,0,0,183.21,29.61Z"/></g></g></svg>