<?xml version="1.0" encoding="utf-8"?>
<!-- Generator: Adobe Illustrator 22.1.0, SVG Export Plug-In . SVG Version: 6.00 Build 0)  -->
<svg version="1.1" id="berry" xmlns="http://www.w3.org/2000/svg" xmlns:xlink="http://www.w3.org/1999/xlink" x="0px" y="0px"
	 viewBox="0 0 52.8 52.8" style="enable-background:new 0 0 52.8 52.8;" xml:space="preserve">
<style type="text/css">
	.st0{fill:#E1E1E1;stroke:#000000;stroke-miterlimit:10;}
</style>
<g id="berry_1_">
	<path id="berry_x5F_outline" d="M41.1,30.6c3.1-1.5,5.1-4.9,4.6-8.6c-0.5-3.6-3.5-6.5-7.1-6.9c-1.6-0.2-3.1,0.1-4.4,0.7
		c0,0,0,0-0.1-0.1l3.1-8.5c0.2-0.6-0.4-1.2-1-0.9l-4.9,2.2c-0.6,0.3-1.3,0-1.6-0.6L27,2.5c-0.3-0.6-1.1-0.5-1.4,0l-2.3,5.3
		c-0.3,0.6-1,0.9-1.6,0.6l-5.3-2.3c-0.5-0.2-1.1,0.3-0.9,0.9l3.3,8.9c-1.2-0.6-2.5-1-3.9-0.9c-4.6,0.1-8.4,4.2-8.1,8.8
		c0.2,2.5,1.5,4.8,3.5,6.1c-2.5,1.8-4,4.9-3.4,8.3c0.6,3.2,3.2,5.9,6.4,6.5c1.9,0.4,3.7,0.1,5.3-0.7c1,3.4,4.1,6,7.9,6
		c3.3,0,6.1-1.9,7.4-4.7c1.1,0.4,2.3,0.6,3.6,0.5c4-0.3,7.3-3.6,7.6-7.6C45.3,34.9,43.6,32.1,41.1,30.6z"/>
	<path id="berr_x5F_shadow" class="st0" d="M37.8,41L37.8,41c1.6,0,2.9-1.3,2.9-2.9V35c0-1.6-1.3-2.9-2.9-2.9h0
		c-1.6,0-2.9,1.3-2.9,2.9V38C34.8,39.6,36.2,41,37.8,41z"/>
</g>
</svg>
