<?xml version="1.0" encoding="utf-8"?>
<!-- Generator: Adobe Illustrator 22.1.0, SVG Export Plug-In . SVG Version: 6.00 Build 0)  -->
<svg version="1.1" id="sign" xmlns="http://www.w3.org/2000/svg" xmlns:xlink="http://www.w3.org/1999/xlink" x="0px" y="0px"
	 viewBox="0 0 52.8 52.8" style="enable-background:new 0 0 52.8 52.8;" xml:space="preserve">
<style type="text/css">
	.st0{fill:#E1E1E1;stroke:#000000;stroke-miterlimit:10;}
</style>
<g id="sign_1_">
	<rect id="post" x="21.4" y="3" class="st0" width="9.2" height="47.4"/>
	<path id="face_x5F_sign" class="st0" d="M38.9,7.3H13.1c-4.2,0-7.6,3.4-7.6,7.6v11.9c0,4.2,3.4,7.6,7.6,7.6h25.8
		c4.2,0,7.6-3.4,7.6-7.6V14.9C46.5,10.7,43.1,7.3,38.9,7.3z"/>
	<path id="shadow_x5F_2" d="M27.4,37.8L27.4,37.8c-0.6,0-1,0.4-1,0.9v0.1c0,0.5,0.4,0.9,0.9,0.9h0.1c0.5,0,0.9-0.4,0.9-0.9v-0.1
		C28.3,38.2,27.9,37.8,27.4,37.8z"/>
	<path id="shadow_x5F_1" d="M27.4,41L27.4,41c-0.6,0-1,0.4-1,0.9v4.6c0,0.5,0.4,0.9,0.9,0.9h0.1c0.5,0,0.9-0.4,0.9-0.9v-4.6
		C28.3,41.4,27.9,41,27.4,41z"/>
</g>
</svg>
