<?xml version="1.0" encoding="utf-8"?>
<!-- Generator: Adobe Illustrator 22.1.0, SVG Export Plug-In . SVG Version: 6.00 Build 0)  -->
<svg version="1.1" id="i" xmlns="http://www.w3.org/2000/svg" xmlns:xlink="http://www.w3.org/1999/xlink" x="0px" y="0px"
	 viewBox="0 0 52.8 52.8" style="enable-background:new 0 0 52.8 52.8;" xml:space="preserve">
<g id="i_1_">
	<path id="i_x5F_base" d="M26.9,15.3c1,1,3.6,3.7,5.9,5c0.4,0.2,0.4,0.7,0.1,0.9c-0.7,0.5-1.7,1.5-1.7,2.8c0,2-0.2,15.6-0.3,16.2
		c0,0,0,0,0,0c0,0.2,0.2,2,1.9,2.5c0.4,0.1,0.6,0.7,0.2,1l-5.7,4.9c-0.2,0.2-0.5,0.2-0.7,0c-1.1-0.7-4.1-3-4.2-6.3
		c-0.2-3.8,0-18,0-19.3c0-0.1,0-0.1,0-0.2c-0.1-0.3-0.6-1.1-2.2-1.4c-0.5-0.1-0.6-0.7-0.2-1l6.1-5.1C26.4,15,26.7,15,26.9,15.3z"/>
	<path id="i_x5F_dot" d="M27.3,12.1c2.1-1.6,7-5.9-0.4-8.7c-0.3-0.1-0.6-0.1-1,0c-1.7,0.6-7.1,3.2-0.3,8.7
		C26.1,12.5,26.8,12.5,27.3,12.1z"/>
</g>
</svg>
