<?xml version="1.0" encoding="utf-8"?>
<!-- Generator: Adobe Illustrator 22.1.0, SVG Export Plug-In . SVG Version: 6.00 Build 0)  -->
<svg version="1.1" id="Layer_1" xmlns="http://www.w3.org/2000/svg" xmlns:xlink="http://www.w3.org/1999/xlink" x="0px" y="0px"
	 viewBox="0 0 1112.3 716.3" style="enable-background:new 0 0 1112.3 716.3;" xml:space="preserve">
<g transform="translate(0,317) scale(0.058500,-0.058500)">
	<path d="M4167.7,5239.3c-170-115.9-154.5-368.3,28.3-489.4c92.7-61.8,103-77.3,103-177.7c0-144.2,74.7-278.2,185.4-332.3
		c162.3-77.3,170-110.8,56.7-242.1c-103-118.5-162.3-162.3-311.6-216.3c-118.5-43.8-213.8-141.7-213.8-216.3
		c0-43.8-33.5-90.1-105.6-149.4c-149.4-121.1-182.9-198.3-162.3-376c23.2-206,7.7-213.8-401.8-237c-324.5-18-337.4-20.6-437.9-97.9
		c-54.1-46.4-123.6-82.4-152-82.4s-56.7-10.3-67-23.2c-18-30.9-270.4-105.6-355.4-105.6c-41.2,0-128.8-51.5-226.7-128.8
		c-92.7-74.7-185.4-128.8-224.1-128.8c-33.5,0-121.1-30.9-195.7-67c-72.1-38.6-164.8-87.6-208.6-108.2
		c-41.2-20.6-128.8-67-193.2-103c-237-131.4-257.6-139.1-350.3-121.1c-77.3,12.9-105.6,2.6-195.7-69.5
		c-247.3-203.5-303.9-275.6-303.9-381.2c0-79.8-15.5-110.8-67-146.8c-123.6-85-164.8-136.5-164.8-200.9
		c0-97.9,82.4-128.8,249.8-90.1c128.8,30.9,146.8,30.9,262.7-25.8c154.5-69.5,226.7-61.8,409.5,54.1l133.9,82.4l131.4-82.4
		c146.8-90.1,193.2-97.9,316.8-38.6c105.6,51.5,244.7,33.5,311.6-41.2c28.3-30.9,79.8-51.5,128.8-51.5c43.8,0,139.1-28.3,208.6-64.4
		c162.3-82.4,226.7-79.8,409.5,12.9c82.4,43.8,175.1,77.3,206,77.3s113.3,41.2,182.9,90.1c69.5,48.9,149.4,90.1,180.3,90.1
		c28.3,0,105.6-33.5,170-74.7c162.3-103,200.9-110.8,314.2-56.7c126.2,59.2,159.7,51.5,319.4-90.1
		c69.5-61.8,154.5-113.3,182.9-113.3c92.7,0,92.7-69.5,2.6-146.8c-69.5-56.7-79.8-79.8-69.5-152c18-105.6-30.9-157.1-108.2-115.9
		c-79.8,43.8-149.4,33.5-255-33.5c-123.6-79.8-167.4-128.8-242.1-283.3c-69.5-149.4-103-167.4-167.4-95.3
		c-59.2,72.1-121.1,67-157.1-10.3c-33.5-74.7-28.3-90.1,90.1-337.4c77.3-159.7,87.6-203.5,79.8-347.7
		c-7.7-159.7-10.3-164.8-72.1-157.1c-211.2,25.8-213.8,25.8-257.6-97.9c-33.5-97.9-59.2-126.2-157.1-172.6l-121.1-56.7v-368.3
		c0-381.2,23.2-484.2,113.3-484.2c59.2,0,72.1-74.7,23.2-128.8c-48.9-54.1-41.2-206,15.5-273c36.1-43.8,154.5-46.4,329.7-5.2
		c110.8,25.8,146.8,23.2,216.3-10.3c56.7-25.8,128.8-36.1,226.7-25.8c128.8,10.3,149.4,5.2,188-48.9c23.2-33.5,41.2-79.8,41.2-100.4
		c0-43.8-121.1-224.1-234.4-347.7c-105.6-115.9-113.3-185.4-33.5-334.8c36.1-69.5,85-162.3,108.2-206
		c51.5-100.4,77.3-115.9,188-115.9c69.5,0,110.8,20.6,172.6,85c46.4,46.4,82.4,108.2,82.4,136.5c0,30.9,23.2,74.7,54.1,103
		c30.9,25.8,77.3,95.3,105.6,152l51.5,100.4l48.9-59.2c28.3-33.5,48.9-82.4,48.9-110.8c0-133.9,110.8-190.6,216.3-110.8
		c74.7,56.7,195.7,46.4,311.6-25.8c56.7-33.5,126.2-61.8,154.5-64.4c59.2,0,203.5,82.4,298.8,170l64.4,61.8l85-87.6
		c59.2-61.8,118.5-95.3,193.2-105.6c172.6-28.3,285.9-118.5,321.9-255c23.2-92.7,51.5-131.4,126.2-182.9
		c54.1-36.1,136.5-115.9,180.3-180.3c92.7-131.4,152-146.8,175.1-43.8c30.9,141.7,41.2,162.3,69.5,152c18-5.2,36.1-72.1,43.8-149.4
		c7.7-77.3,23.2-154.5,33.5-170c25.8-41.2,126.2-43.8,167.4-2.6c36.1,36.1,177.7-2.6,311.6-82.4c79.8-51.5,85-61.8,69.5-159.7
		c-23.2-144.2,20.6-200.9,260.1-329.7c126.2-67,257.6-164.8,355.4-265.3c177.7-182.9,370.9-275.6,579.5-275.6
		c139.1,0,206-56.7,206-175.1c0-36.1,20.6-121.1,46.4-190.6l43.8-128.8l-59.2-43.8c-190.6-133.9-188-131.4-164.8-306.5
		c12.9-90.1,38.6-177.7,59.2-198.3c20.6-20.6,103-54.1,185.4-74.7c100.4-25.8,167.4-61.8,203.5-105.6c59.2-74.7,97.9-79.8,206-23.2
		c69.5,36.1,100.4,38.6,216.3,10.3c193.2-46.4,224.1-18,203.5,190.6c-12.9,136.5-7.7,170,43.8,247.3
		c48.9,77.3,59.2,123.6,59.2,309.1c0,149.4,12.9,249.8,43.8,316.8c43.8,95.3,43.8,95.3,198.3,95.3c136.5,0,167.4,10.3,242.1,77.3
		c105.6,90.1,198.3,128.8,319.4,128.8c69.5,0,105.6,18,170,92.7c46.4,51.5,180.3,159.7,301.3,242.1c121.1,82.4,237,167.4,255,190.6
		c20.6,25.8,41.2,108.2,48.9,185.4c10.3,115.9,25.8,152,87.6,203.5c103,87.6,188,82.4,275.6-15.5c105.6-113.3,167.4-95.3,177.7,54.1
		c5.2,100.4,36.1,265.3,72.1,383.8c23.2,74.7,72.1-23.2,74.7-146.8c0-118.5,2.6-121.1,77.3-121.1c67,0,85,15.5,126.2,108.2
		c30.9,67,74.7,118.5,118.5,136.5c67,28.3,128.8,118.5,128.8,193.2c0,59.2,141.7,141.7,249.8,141.7c123.6,0,141.7,12.9,213.8,152
		c67,131.4,162.3,234.4,218.9,234.4c48.9,0,51.5-87.6,0-128.8c-59.2-48.9-46.4-115.9,25.8-149.4c36.1-18,121.1-82.4,190.6-146.8
		c92.7-87.6,144.2-115.9,206-115.9c105.6,0,128.8,61.8,56.7,139.1c-28.3,30.9-54.1,64.4-54.1,74.7c0,33.5,285.9,18,358-18
		c59.2-33.5,79.8-33.5,146.8,0c43.8,20.6,97.9,79.8,121.1,128.8c79.8,164.8,170,136.5,224.1-67c12.9-51.5,64.4-131.4,113.3-177.7
		c118.5-115.9,221.5-115.9,396.6-2.6l133.9,85v175.1c0,213.8-43.8,278.2-200.9,298.8c-131.4,18-152,54.1-105.6,167.4
		c18,43.8,33.5,141.7,33.5,211.2l2.6,131.4h360.6c198.3-2.6,386.3-12.9,417.2-23.2c46.4-18,67-5.2,110.8,64.4
		c72.1,118.5,90.1,203.5,54.1,257.6c-43.8,74.7-36.1,110.8,48.9,190.6c56.7,54.1,77.3,97.9,77.3,164.8c0,54.1,28.3,136.5,64.4,195.7
		c115.9,190.6,61.8,383.8-139.1,497.1c-54.1,30.9-126.2,97.9-154.5,149.4c-33.5,56.7-90.1,105.6-149.4,128.8
		c-172.6,67-172.6,67-177.7,257.6c-10.3,216.3,36.1,329.7,159.7,401.8c92.7,54.1,115.9,136.5,56.7,195.7
		c-43.8,43.8-136.5,38.6-175.1-7.7c-18-20.6-64.4-38.6-105.6-38.6c-85,0-126.2,59.2-126.2,180.3c0,103-87.6,270.4-164.8,324.5
		c-46.4,28.3-110.8,36.1-239.5,30.9l-175.1-7.7v141.7c0,128.8,5.2,141.7,64.4,154.5c51.5,12.9,74.7,46.4,118.5,167.4
		c30.9,82.4,67,157.1,82.4,162.3c15.5,5.2,56.7-10.3,95.3-36.1c46.4-28.3,92.7-38.6,162.3-28.3c141.7,23.2,942.7-56.7,1012.2-100.4
		c64.4-38.6,466.2-36.1,522.8,5.2c36.1,23.2,126.2,36.1,280.7,36.1c167.4,0,242.1,10.3,291,41.2c51.5,36.1,103,41.2,275.6,28.3
		c118.5-10.3,275.6-36.1,350.3-59.2c77.3-20.6,231.8-48.9,345.1-61.8c172.6-18,229.2-12.9,350.3,28.3c77.3,28.3,152,64.4,162.3,82.4
		c30.9,48.9-2.6,126.2-113.3,244.7c-95.3,103-100.4,118.5-85,221.5l18,113.3l-136.5,92.7c-77.3,51.5-146.8,92.7-157.1,92.7
		s-77.3,36.1-144.2,77.3c-87.6,51.5-159.7,77.3-231.8,77.3c-79.8,0-126.2,20.6-211.2,90.1c-97.9,82.4-121.1,90.1-275.6,90.1
		c-157.1,0-175.1,5.2-311.6,113.3c-82.4,59.2-234.4,154.5-340,208.6c-105.6,51.5-211.2,110.8-231.8,128.8
		c-20.6,20.6-131.4,64.4-244.7,103c-164.8,56.7-224.1,90.1-296.2,172.6c-90.1,103-97.9,105.6-218.9,92.7
		c-69.5-10.3-154.5-2.6-190.6,10.3c-38.6,15.5-131.4,28.3-208.6,30.9c-133.9,2.6-141.7,7.7-149.4,72.1
		c-5.2,38.6,10.3,103,30.9,146.8c38.6,72.1,38.6,79.8-25.8,154.5c-36.1,43.8-95.3,92.7-133.9,110.8
		c-43.8,23.2-82.4,74.7-110.8,149.4c-56.7,152-141.7,234.4-298.8,291c-82.4,28.3-146.8,69.5-175.1,115.9
		c-25.8,38.6-61.8,79.8-82.4,90.1c-48.9,30.9-41.2,105.6,20.6,162.3c61.8,56.7,177.7,273,177.7,332.3c0,77.3,82.4,206,211.2,327.1
		s131.4,123.6,118.5,249.8c-7.7,72.1-28.3,146.8-46.4,170c-69.5,82.4-334.8,36.1-597.5-105.6c-97.9-51.5-136.5-59.2-206-41.2
		c-79.8,20.6-316.8-28.3-574.4-118.5c-41.2-15.5-133.9-41.2-206-56.7c-69.5-15.5-154.5-54.1-185.4-82.4
		c-61.8-56.7-79.8-159.7-33.5-188c36.1-23.2,30.9-175.1-5.2-221.5c-18-20.6-82.4-72.1-141.7-110.8
		c-139.1-92.7-182.9-162.3-216.3-345.1c-56.7-309.1-113.3-383.8-445.6-615.6c-141.7-97.9-170-133.9-170-216.3
		c0-46.4-38.6-144.2-92.7-231.8c-48.9-85-126.2-221.5-172.6-306.5c-56.7-110.8-115.9-182.9-206-247.3l-126.2-90.1l-311.6,10.3
		l-314.2,7.7l-48.9,90.1c-82.4,144.2-249.8,355.4-329.7,412.1c-69.5,51.5-77.3,51.5-136.5,12.9c-74.7-48.9-79.8-110.8-20.6-218.9
		c43.8-74.7,43.8-82.4,0-164.8c-59.2-110.8-48.9-175.1,33.5-216.3c92.7-46.4,131.4-108.2,103-162.3
		c-33.5-61.8-157.1-108.2-260.1-97.9c-79.8,7.7-92.7,20.6-152,170c-97.9,247.3-182.9,285.9-370.9,177.7
		c-77.3-43.8-110.8-90.1-154.5-198.3c-46.4-115.9-67-141.7-118.5-141.7c-54.1,0-67,15.5-79.8,100.4
		c-12.9,74.7-46.4,128.8-123.6,200.9c-90.1,85-121.1,100.4-200.9,92.7c-85-7.7-108.2-25.8-208.6-167.4
		c-108.2-154.5-115.9-162.3-221.5-162.3c-59.2,0-121.1,12.9-139.1,30.9c-51.5,51.5-36.1,141.7,30.9,185.4
		c92.7,59.2,105.6,131.4,43.8,237c-56.7,97.9-69.5,203.5-28.3,229.2c36.1,23.2,33.5,123.6-5.2,162.3
		c-97.9,97.9-252.4-43.8-419.8-386.3c-95.3-195.7-97.9-200.9-190.6-200.9c-54.1,0-118.5,18-146.8,38.6c-64.4,48.9-141.7,48.9-206,0
		c-85-64.4-170-43.8-296.2,72.1c-100.4,90.1-136.5,152-229.2,391.5c-59.2,157.1-131.4,314.2-157.1,350.3
		c-25.8,38.6-61.8,113.3-79.8,167.4c-38.6,115.9-162.3,208.6-311.6,234.4c-154.5,23.2-198.3,82.4-198.3,265.3
		c0,224.1-74.7,394.1-257.6,592.4c-85,90.1-154.5,177.7-154.5,195.7c0,18,20.6,67,43.8,108.2c56.7,97.9,18,152-118.5,172.6
		c-51.5,7.7-131.4,33.5-177.7,54.1c-46.4,20.6-128.8,36.1-182.9,36.1s-139.1,15.5-188,36.1c-48.9,20.6-149.4,36.1-226.7,36.1
		c-113.3-2.6-170,12.9-283.3,77.3c-77.3,43.8-195.7,110.8-262.7,146.8c-67,33.5-126.2,74.7-136.5,90.1
		C4360.9,5319.1,4263,5303.7,4167.7,5239.3z M7485,484.7c90.1-100.4,100.4-103,252.4-103c182.9,0,234.4-36.1,208.6-141.7
		c-10.3-36.1-2.6-90.1,12.9-123.6c61.8-110.8,270.4-329.7,388.9-404.4c133.9-82.4,213.8-185.4,193.2-242.1
		c-7.7-20.6-77.3-59.2-152-87.6c-113.3-41.2-146.8-69.5-200.9-164.8c-149.4-265.3-244.7-342.6-350.3-283.3
		c-48.9,25.8-110.8,224.1-113.3,355.4c0,82.4-180.3,481.6-229.2,512.5c-18,7.7-82.4,121.1-144.2,247.3
		c-103,200.9-113.3,242.1-100.4,340C7286.7,618.7,7346,641.8,7485,484.7z M11701.3,495c51.5-133.9-36.1-461-237-886
		c-43.8-92.7-92.7-218.9-108.2-283.3c-30.9-110.8-133.9-381.2-177.7-463.6c-10.3-20.6-51.5-41.2-87.6-46.4
		c-48.9-5.2-69.5,5.2-82.4,51.5c-10.3,33.5-43.8,95.3-77.3,136.5c-30.9,43.8-82.4,136.5-115.9,211.2
		c-79.8,188-154.5,249.8-275.6,231.8c-105.6-18-188,30.9-188,113.3c0,54.1,118.5,152,185.4,152c95.3,0,329.7,185.4,396.6,314.2
		c20.6,38.6,36.1,121.1,36.1,185.4s10.3,121.1,20.6,128.8c10.3,5.2,123.6,20.6,249.8,30.9c211.2,15.5,237,23.2,301.3,90.1
		C11618.9,544,11678.1,556.8,11701.3,495z M6913.3-1856.5c85-10.3,288.5-69.5,450.7-136.5c162.3-64.4,316.8-123.6,342.6-133.9
		c41.2-12.9,46.4-54.1,41.2-471.3c-2.6-252.4-7.7-476.5-12.9-499.7c-7.7-23.2-69.5-67-141.7-100.4c-152-72.1-200.9-56.7-234.4,74.7
		c-12.9,43.8-69.5,141.7-123.6,216.3c-56.7,72.1-113.3,172.6-126.2,218.9c-15.5,48.9-56.7,128.8-97.9,180.3
		c-38.6,51.5-97.9,149.4-128.8,216.3c-30.9,67-103,172.6-159.7,234.4c-133.9,146.8-144.2,275.6-15.5,237
		C6735.6-1830.7,6828.3-1846.2,6913.3-1856.5z M12334.9-1859.1c59.2-59.2,67-162.3,20.6-198.3c-18-15.5-61.8-33.5-97.9-41.2
		c-67-18-123.6-92.7-278.2-365.7c-46.4-85-118.5-180.3-157.1-211.2c-43.8-33.5-95.3-118.5-128.8-208.6
		c-56.7-162.3-159.7-265.3-314.2-319.4c-43.8-15.5-105.6-69.5-141.7-126.2c-48.9-79.8-77.3-100.4-136.5-100.4
		c-121.1,0-146.8,54.1-108.2,239.5c18,87.6,38.6,267.9,43.8,396.6c7.7,141.7,33.5,298.8,61.8,383.8c28.3,82.4,51.5,167.4,51.5,190.6
		c0,56.7,51.5,77.3,182.9,77.3c56.7,0,149.4,25.8,211.2,59.2c247.3,131.4,576.9,270.4,656.8,273
		C12252.5-1807.5,12304-1828.1,12334.9-1859.1z"/>
	<path d="M2913.4-421.9c-118.5-59.2-95.3-278.2,30.9-278.2c69.5,0,195.7,131.4,195.7,203.5C3140-398.7,3034.4-365.2,2913.4-421.9z"
		/>
	<path d="M15824.8-519.7c-33.5-51.5,43.8-208.6,126.2-260.1c108.2-67,185.4-61.8,237,15.5c38.6,59.2,38.6,69.5-12.9,152
		c-30.9,48.9-72.1,95.3-95.3,103C16015.4-483.7,15842.8-491.4,15824.8-519.7z"/>
	<path d="M5174.7-3649.1c-25.8-30.9-25.8-54.1-5.2-103c33.5-69.5,79.8-82.4,128.8-33.5c41.2,41.2,38.6,85-10.3,133.9
		C5239.1-3600.2,5216-3600.2,5174.7-3649.1z"/>
	<path d="M6024.7-3973.6c-38.6-72.1-23.2-152,38.6-193.2c118.5-77.3,226.7,108.2,121.1,203.5
		C6120-3904.1,6058.2-3909.2,6024.7-3973.6z"/>
	<path d="M12752.1-4001.9c-67-67-2.6-226.7,87.6-226.7c82.4,0,108.2,105.6,51.5,193.2C12844.8-3965.9,12801.1-3953,12752.1-4001.9z"
		/>
	<path d="M3917.9-4079.2c-43.8-43.8-38.6-188,10.3-229.2c36.1-28.3,48.9-25.8,90.1,25.8c77.3,92.7,51.5,234.4-41.2,234.4
		C3961.6-4048.3,3935.9-4061.2,3917.9-4079.2z"/>
	<path d="M14889.9-4246.6c-30.9-56.7-12.9-175.1,33.5-213.8c82.4-69.5,211.2,105.6,149.4,203.5
		C15034.1-4195.1,14918.2-4190,14889.9-4246.6z"/>
	<path d="M3724.7-4398.6c-30.9-33.5-20.6-131.4,20.6-164.8c54.1-46.4,121.1,12.9,110.8,100.4
		C3848.3-4396,3765.9-4357.4,3724.7-4398.6z"/>
	<path d="M15106.2-4586.6c-67-74.7-43.8-141.7,51.5-152c113.3-10.3,159.7,51.5,103,136.5
		C15209.2-4524.8,15165.5-4519.6,15106.2-4586.6z"/>
</g>
</svg>
