<?xml version="1.0" encoding="utf-8"?>
<!-- Generator: Adobe Illustrator 22.1.0, SVG Export Plug-In . SVG Version: 6.00 Build 0)  -->
<svg version="1.1" id="politics" xmlns="http://www.w3.org/2000/svg" xmlns:xlink="http://www.w3.org/1999/xlink" x="0px" y="0px"
	 viewBox="0 0 52.8 52.8" style="enable-background:new 0 0 52.8 52.8;" xml:space="preserve">
<g id="politics_1_">
	<path id="hammer_x5F_2" d="M39.1,16.6l-0.6,0.6c-1.3,1.3-3.6,1.3-4.9,0l-8.8-8.8c-1.3-1.3-1.3-3.6,0-4.9l0.6-0.6
		c1.3-1.3,3.6-1.3,4.9,0l8.8,8.8C40.5,13,40.5,15.3,39.1,16.6z"/>
	<path id="hammer_x5F_1" d="M23.3,32.5l-0.6,0.6c-1.3,1.3-3.6,1.3-4.9,0l-8.8-8.8c-1.3-1.3-1.3-3.6,0-4.9l0.6-0.6
		c1.3-1.3,3.6-1.3,4.9,0l8.8,8.8C24.6,28.9,24.6,31.1,23.3,32.5z"/>
	<path id="middle_x5F_handle" d="M23.8,8.9l8.7,8.7c0,0-6.9,3.3-9.1,8.9l-8.6-8.4C14.8,18.1,21.7,14.6,23.8,8.9z"/>
	<path id="small_x5F_handle" d="M35.4,28.3l-0.3,0.3c-0.6,0.6-1.6,0.6-2.2,0l-4.4-4.4c-0.6-0.6-0.6-1.6,0-2.2l0.3-0.3
		c0.6-0.6,1.6-0.6,2.2,0l4.4,4.4C36,26.7,36,27.7,35.4,28.3z"/>
	<path id="base2" d="M24.5,37.5H8.8c-1.3,0-2.5,1.1-2.5,2.5v0.6c0,1.3,1.1,2.5,2.5,2.5h15.7c1.3,0,2.5-1.1,2.5-2.5v-0.6
		C27,38.6,25.9,37.5,24.5,37.5z"/>
	<path id="base1" d="M29.3,44H4c-1.6,0-3,1.3-3,3v0.8c0,1.6,1.3,3,3,3h25.3c1.6,0,3-1.3,3-3v-0.8C32.3,45.3,31,44,29.3,44z"/>
	<path id="handle" d="M36.1,28.8l-0.5,0.5c-1.1,1.1-1.1,2.8,0,3.8l11.3,11.3c1.1,1.1,2.8,1.1,3.8,0l0.5-0.5c1.1-1.1,1.1-2.8,0-3.8
		L39.9,28.8C38.9,27.8,37.1,27.8,36.1,28.8z"/>
</g>
</svg>
