<?xml version="1.0" encoding="utf-8"?>
<!-- Generator: Adobe Illustrator 22.1.0, SVG Export Plug-In . SVG Version: 6.00 Build 0)  -->
<svg version="1.1" id="u" xmlns="http://www.w3.org/2000/svg" xmlns:xlink="http://www.w3.org/1999/xlink" x="0px" y="0px"
	 viewBox="0 0 44.9 44.9" style="enable-background:new 0 0 44.9 44.9;" xml:space="preserve">
<style type="text/css">
	.st0{fill:#E1E1E1;}
</style>
<g id="u_1_">
	<circle id="u_x5F_circle" cx="22.8" cy="22" r="21.2"/>
	<g id="u_3_">
		<path id="u_2_" class="st0" d="M26.3,15h2.2v10.1c0,0.7-0.1,1.4-0.4,2c-0.3,0.6-0.6,1.1-1.1,1.6s-1,0.8-1.6,1.1
			c-0.6,0.3-1.3,0.4-2,0.4c-0.7,0-1.4-0.1-2-0.4s-1.1-0.6-1.6-1.1s-0.8-1-1.1-1.6s-0.4-1.3-0.4-2V15h2.2v10.1c0,0.4,0.1,0.8,0.2,1.1
			c0.1,0.3,0.4,0.7,0.6,0.9c0.3,0.3,0.6,0.5,0.9,0.6c0.4,0.2,0.7,0.2,1.1,0.2c0.4,0,0.8-0.1,1.2-0.2c0.4-0.2,0.7-0.4,0.9-0.6
			c0.3-0.3,0.5-0.6,0.6-0.9c0.1-0.3,0.2-0.7,0.2-1.1V15z"/>
	</g>
</g>
</svg>
