<?xml version="1.0" encoding="utf-8"?>
<!-- Generator: Adobe Illustrator 22.1.0, SVG Export Plug-In . SVG Version: 6.00 Build 0)  -->
<svg version="1.1" id="wesley" xmlns="http://www.w3.org/2000/svg" xmlns:xlink="http://www.w3.org/1999/xlink" x="0px" y="0px"
	 viewBox="0 0 52.8 52.8" style="enable-background:new 0 0 52.8 52.8;" xml:space="preserve">
<style type="text/css">
	.st0{fill:#E1E1E1;}
</style>
<g id="wesley_1_">
	<path id="outline" d="M48.7,49v-2.4c0-8.4-6.9-15.3-15.3-15.3h-0.1c4.5-2.5,7.5-7.2,7.5-12.7c0-8-6.5-14.5-14.5-14.5
		s-14.5,6.5-14.5,14.5c0,5.5,3,10.2,7.5,12.7h-0.1c-8.4,0-15.3,6.9-15.3,15.3V49H48.7z"/>
	<path id="centerStar" class="st0" d="M28.2,15.1L28.2,15.1c0.3,0.8,1,1.4,1.9,1.4l0,0c1.9,0,2.8,2.5,1.2,3.6l0,0
		c-0.7,0.5-1,1.4-0.7,2.2l0,0c0.6,1.9-1.5,3.4-3.1,2.2l0,0c-0.7-0.5-1.7-0.5-2.4,0l0,0c-1.6,1.1-3.7-0.4-3.1-2.2l0,0
		c0.3-0.8,0-1.7-0.7-2.2l0,0c-1.6-1.1-0.8-3.6,1.2-3.6l0,0c0.9,0,1.6-0.6,1.9-1.4l0,0C25,13.3,27.6,13.3,28.2,15.1z"/>
</g>
</svg>
