<?xml version="1.0" encoding="utf-8"?>
<!-- Generator: Adobe Illustrator 22.1.0, SVG Export Plug-In . SVG Version: 6.00 Build 0)  -->
<svg version="1.1" id="zulu" xmlns="http://www.w3.org/2000/svg" xmlns:xlink="http://www.w3.org/1999/xlink" x="0px" y="0px"
	 viewBox="0 0 52.8 52.8" style="enable-background:new 0 0 52.8 52.8;" xml:space="preserve">
<style type="text/css">
	.st0{fill:#E1E1E1;stroke:#000000;stroke-width:3;stroke-miterlimit:10;}
	.st1{fill:#E1E1E1;}
</style>
<g id="zulu_1_">
	<polygon id="triangle8" class="st0" points="26.6,3.4 32.6,13.8 38.6,3.4 	"/>
	<polygon id="triangle7" class="st0" points="33.9,16 39.9,26.4 45.9,16 	"/>
	<polygon id="triangle6" class="st0" points="7.3,16 13.3,26.4 19.3,16 	"/>
	<polygon id="triangle5" class="st0" points="14.6,3.4 20.6,13.8 26.6,3.4 	"/>
	<polygon id="triangle4" class="st0" points="26.6,49.4 32.6,39 38.6,49.4 	"/>
	<polygon id="trangle3" class="st0" points="33.9,36.8 39.9,26.4 45.9,36.8 	"/>
	<polygon id="triangle2" class="st0" points="7.3,36.8 13.3,26.4 19.3,36.8 	"/>
	<polygon id="triangle1" class="st0" points="14.6,49.4 20.6,39 26.6,49.4 	"/>
	<g id="main_x5F_triangle">
		<polygon points="15.6,26.4 26.6,7.4 37.6,26.4 26.6,45.4 		"/>
		<path class="st1" d="M26.6,11.4l8.7,15l-8.7,15l-8.7-15L26.6,11.4 M26.6,3.4l-13.3,23l13.3,23l13.3-23L26.6,3.4L26.6,3.4z"/>
	</g>
</g>
</svg>
